<svg width="26" height="26" viewBox="0 0 26 26" fill="none" xmlns="http://www.w3.org/2000/svg">
<g clip-path="url(#clip0_232_21907)">
<rect width="26" height="26" rx="5" fill="#A10000"/>
<g clip-path="url(#clip1_232_21907)">
<path d="M9.24958 20.9167C9.1875 20.9167 9.12292 20.9025 9.06375 20.8729C7.75292 20.2167 6.11 18.03 5.41667 16.5679C5.27542 16.7308 5.1175 16.8888 4.96125 17.045C4.85208 17.1537 4.69333 17.1937 4.54583 17.1492C4.39875 17.1046 4.28833 16.9833 4.25833 16.8317C3.95458 15.3146 3.84167 12.6996 4.20458 10.7183L3.71125 11.2117C3.59208 11.3308 3.41292 11.3667 3.25708 11.3021C3.10125 11.2371 3 11.085 3 10.9167C3 8.20667 5.63917 3 9.25 3C10.7688 3 12.6963 3.35708 13.2946 3.95542C13.4575 4.11833 13.4575 4.38167 13.2946 4.54458C13.1317 4.7075 12.8683 4.7075 12.7054 4.54458C12.4158 4.25458 10.9254 3.83333 9.25 3.83333C6.61833 3.83333 4.52333 7.29167 3.97458 9.76958L4.78875 8.95542C4.93292 8.81042 5.16167 8.79208 5.32708 8.91208C5.4925 9.03167 5.54708 9.25333 5.45625 9.43625C4.79958 10.7504 4.66625 13.6617 4.94125 15.8283C5.02792 15.7058 5.08417 15.5921 5.08417 15.5C5.08417 15.27 5.27042 15.0833 5.50083 15.0833C5.73208 15.0833 5.9175 15.27 5.9175 15.5C5.9175 16.1617 7.87125 19.3454 9.43708 20.1271C9.64208 20.2296 9.72583 20.4804 9.6225 20.6862C9.54958 20.8325 9.4025 20.9167 9.24958 20.9167Z" fill="#E3EDF0"/>
<path d="M16.7502 20.9167C16.5973 20.9167 16.4502 20.8325 16.3769 20.6862C16.2735 20.4804 16.3573 20.2296 16.5631 20.1271C18.1294 19.3454 20.0831 16.1617 20.0831 15.5C20.0831 15.27 20.2694 15.0833 20.4998 15.0833C20.7302 15.0833 20.9164 15.27 20.9164 15.5C20.9164 15.5921 20.9727 15.7058 21.0598 15.8283C21.3344 13.6617 21.2014 10.7504 20.5439 9.43625C20.4523 9.25333 20.5073 9.03125 20.6739 8.91208C20.8389 8.79208 21.0673 8.81042 21.2123 8.95542L22.0264 9.76958C21.4764 7.29167 19.3814 3.83333 16.7498 3.83333C15.0744 3.83333 13.5839 4.25458 13.2944 4.54458C13.1314 4.7075 12.8681 4.7075 12.7052 4.54458C12.5423 4.38167 12.5423 4.11833 12.7052 3.95542C13.3035 3.35708 15.231 3 16.7498 3C20.3606 3 22.9998 8.20667 22.9998 10.9167C22.9998 11.085 22.8985 11.2371 22.7427 11.3017C22.5873 11.3663 22.4077 11.3304 22.2885 11.2113L21.7952 10.7179C22.1581 12.6996 22.0452 15.3146 21.7414 16.8317C21.7114 16.9817 21.6006 17.1038 21.4539 17.1488C21.3064 17.1933 21.1477 17.1533 21.0385 17.0446C20.8823 16.8883 20.7244 16.7304 20.5831 16.5675C19.8898 18.0296 18.2481 20.2171 16.936 20.8725C16.8769 20.9025 16.8123 20.9167 16.7502 20.9167Z" fill="#E3EDF0"/>
<path d="M17.9998 23H7.99984C7.8315 23 7.679 22.8984 7.61484 22.743C7.55025 22.5871 7.58609 22.408 7.70525 22.2888C8.70442 21.2896 9.45317 19.3455 9.62775 18.6325C8.17609 17.7059 7.35942 15.8813 7.19775 13.2013C5.9315 11.858 5.9165 10.1567 5.9165 10.0834C5.9165 9.85337 6.10275 9.6667 6.33317 9.6667C6.40525 9.6667 6.87567 9.6742 7.33109 9.85753C8.00067 7.81795 9.64984 6.20795 11.6615 5.67878C11.7761 5.64795 11.8998 5.6692 12.0003 5.73587C12.099 5.80254 12.1653 5.90837 12.1819 6.02712C12.2353 6.4392 12.5882 6.75004 13.0007 6.75004C13.4132 6.75004 13.7661 6.4392 13.8211 6.02712C13.8369 5.90837 13.9028 5.80254 14.0032 5.73587C14.1011 5.6692 14.2248 5.64837 14.3415 5.67878C16.3519 6.20795 18.0011 7.81795 18.6719 9.85753C19.1265 9.6742 19.5969 9.6667 19.669 9.6667C19.8994 9.6667 20.0857 9.85337 20.0857 10.0834C20.0857 10.1567 20.0711 11.8575 18.8048 13.2005C18.6465 15.8892 17.8298 17.7142 16.3748 18.6342C16.549 19.3463 17.2978 21.2896 18.2969 22.2888C18.4161 22.408 18.4519 22.5871 18.3873 22.743C18.3207 22.8984 18.1682 23 17.9998 23ZM8.88859 22.1667H17.1111C16.1298 20.7917 15.4998 18.8896 15.4998 18.4167C15.4998 18.2625 15.5848 18.1213 15.7203 18.0488C17.0953 17.3171 17.8548 15.6121 17.9794 12.98C17.9865 12.8342 18.0673 12.7092 18.1853 12.64C18.8615 11.928 19.1086 11.08 19.1986 10.5621C19.0157 10.6063 18.8265 10.6788 18.7111 10.7946C18.604 10.9017 18.4482 10.9425 18.3028 10.9005C18.1565 10.8588 18.0457 10.7421 18.0115 10.5946C17.5844 8.76378 16.2032 7.20712 14.5132 6.60379C14.249 7.18504 13.6636 7.58295 13.0007 7.58295C12.3378 7.58295 11.7523 7.18504 11.4882 6.60379C9.7965 7.2067 8.41734 8.76378 7.98984 10.5946C7.95567 10.7421 7.84359 10.8588 7.69859 10.9005C7.55275 10.9425 7.39734 10.9017 7.29025 10.7946C7.17567 10.6796 6.98734 10.6071 6.80484 10.5625C6.89817 11.0884 7.14984 11.9513 7.83775 12.6634C7.94192 12.735 8.01567 12.8492 8.0215 12.98C8.14942 15.6038 8.91025 17.31 10.2823 18.05C10.4161 18.1225 10.5003 18.2634 10.5003 18.4167C10.4998 18.8896 9.86984 20.7917 8.88859 22.1667Z" fill="#E3EDF0"/>
<path d="M14.2501 11.75C14.0851 11.75 13.9289 11.6508 13.8626 11.4879C13.7776 11.2741 13.8818 11.0316 14.0955 10.9462L16.1789 10.1129C16.3905 10.0287 16.6355 10.1312 16.721 10.345C16.806 10.5587 16.7018 10.8012 16.488 10.8866L14.4047 11.72C14.3543 11.7404 14.3018 11.75 14.2501 11.75Z" fill="#E3EDF0"/>
<path d="M14.2501 11.75C14.0851 11.75 13.9289 11.6508 13.8626 11.4879C13.7776 11.2741 13.8818 11.0316 14.0955 10.9462L16.1789 10.1129C16.3905 10.0287 16.6355 10.1312 16.721 10.345C16.806 10.5587 16.7018 10.8012 16.488 10.8866L14.4047 11.72C14.3543 11.7404 14.3018 11.75 14.2501 11.75Z" fill="#E3EDF0"/>
<path d="M15.0835 12.5833C14.3943 12.5833 13.8335 12.0225 13.8335 11.3333C13.8335 11.1629 13.9372 11.01 14.0956 10.9467L15.5306 10.3725C15.6881 10.3096 15.8693 10.3483 15.9868 10.4717C16.2102 10.7063 16.3335 11.0121 16.3335 11.3333C16.3335 12.0225 15.7727 12.5833 15.0835 12.5833ZM14.7493 11.5825C14.8256 11.6842 14.9472 11.75 15.0835 11.75C15.3135 11.75 15.5002 11.5629 15.5002 11.3333C15.5002 11.3163 15.4989 11.2996 15.4968 11.2833L14.7493 11.5825Z" fill="#E3EDF0"/>
<path d="M11.75 11.75C11.6983 11.75 11.6458 11.7404 11.5954 11.72L9.51205 10.8866C9.2983 10.8008 9.19413 10.5587 9.27913 10.345C9.36455 10.1312 9.60955 10.0287 9.82121 10.1129L11.9045 10.9462C12.1183 11.0321 12.2225 11.2741 12.1375 11.4879C12.0712 11.6508 11.915 11.75 11.75 11.75Z" fill="#E3EDF0"/>
<path d="M11.75 11.75C11.6983 11.75 11.6458 11.7404 11.5954 11.72L9.51205 10.8866C9.2983 10.8008 9.19413 10.5587 9.27913 10.345C9.36455 10.1312 9.60955 10.0287 9.82121 10.1129L11.9045 10.9462C12.1183 11.0321 12.2225 11.2741 12.1375 11.4879C12.0712 11.6508 11.915 11.75 11.75 11.75Z" fill="#E3EDF0"/>
<path d="M10.9165 12.5832C10.2273 12.5832 9.6665 12.0224 9.6665 11.3332C9.6665 11.012 9.78984 10.7062 10.0132 10.4716C10.1303 10.3487 10.3123 10.3095 10.4694 10.3724L11.9044 10.9466C12.0628 11.0099 12.1665 11.1632 12.1665 11.3332C12.1665 12.0224 11.6057 12.5832 10.9165 12.5832ZM10.5032 11.2832C10.5011 11.2999 10.4998 11.3166 10.4998 11.3332C10.4998 11.5628 10.6865 11.7499 10.9165 11.7499C11.0528 11.7499 11.1744 11.6841 11.2507 11.5824L10.5032 11.2832Z" fill="#E3EDF0"/>
<path d="M14.6668 17.1666H11.3335C11.1535 17.1666 10.9948 17.0521 10.9385 16.8816L10.1052 14.3816C10.0623 14.2541 10.0839 14.1146 10.1627 14.0062C10.2414 13.8979 10.3668 13.8329 10.5014 13.8329H15.5014C15.6352 13.8329 15.761 13.8966 15.8402 14.0062C15.9185 14.115 15.9393 14.2546 15.8977 14.3816L15.0643 16.8816C15.0056 17.0521 14.8468 17.1666 14.6668 17.1666ZM11.6339 16.3333H14.3668L14.9227 14.6666H11.0789L11.6339 16.3333Z" fill="#E3EDF0"/>
<path d="M11.5416 19.1413C10.8083 19.1413 10.0749 18.9975 9.78869 18.7113C9.62577 18.5484 9.62577 18.285 9.78869 18.1221C9.95161 17.9592 10.2141 17.9592 10.3766 18.1209C10.672 18.3742 12.4133 18.3742 12.707 18.1204C12.8766 17.9738 13.1416 17.9783 13.2949 18.1421C13.4474 18.3063 13.4533 18.5525 13.2945 18.7113C13.0083 18.9979 12.2749 19.1413 11.5416 19.1413Z" fill="#E3EDF0"/>
<path d="M14.4581 19.1412C13.7248 19.1412 12.9914 18.9975 12.7052 18.7112C12.5423 18.5483 12.5423 18.285 12.7052 18.1221C12.8681 17.9591 13.1314 17.9591 13.2944 18.1221C13.5869 18.3741 15.3294 18.3741 15.6235 18.1204C15.7931 17.9737 16.0581 17.9783 16.2114 18.1421C16.3639 18.3062 16.3698 18.5525 16.211 18.7112C15.9248 18.9979 15.1914 19.1412 14.4581 19.1412Z" fill="#E3EDF0"/>
<path d="M11.7501 9.66665C11.6434 9.66665 11.5368 9.62582 11.4555 9.54457L9.37219 7.46123C9.20927 7.29832 9.20927 7.03498 9.37219 6.87207C9.5351 6.70915 9.79844 6.70915 9.96135 6.87207L12.0447 8.9554C12.2076 9.11832 12.2076 9.38165 12.0447 9.54457C11.9634 9.62582 11.8568 9.66665 11.7501 9.66665Z" fill="#E3EDF0"/>
<path d="M10.9168 9.66665C10.8101 9.66665 10.7034 9.62582 10.6222 9.54457C10.4593 9.38165 10.4593 9.11832 10.6222 8.9554L11.4555 8.12207C11.6184 7.95915 11.8818 7.95915 12.0447 8.12207C12.2076 8.28498 12.2076 8.54832 12.0447 8.71123L11.2114 9.54457C11.1301 9.62582 11.0234 9.66665 10.9168 9.66665Z" fill="#E3EDF0"/>
<path d="M10.0833 8.83327C9.97661 8.83327 9.86994 8.79244 9.78869 8.71119C9.62577 8.54827 9.62577 8.28494 9.78869 8.12202L10.622 7.28869C10.7849 7.12577 11.0483 7.12577 11.2112 7.28869C11.3741 7.45161 11.3741 7.71494 11.2112 7.87786L10.3779 8.71119C10.2966 8.79244 10.1899 8.83327 10.0833 8.83327Z" fill="#E3EDF0"/>
</g>
<g clip-path="url(#clip2_232_21907)">
<path d="M8.87454 21.7083C8.80625 21.7083 8.73521 21.6927 8.67013 21.6602C7.22821 20.9383 5.421 18.533 4.65833 16.9247C4.50296 17.1039 4.32925 17.2776 4.15737 17.4495C4.03729 17.5691 3.86267 17.6131 3.70042 17.5641C3.53863 17.515 3.41717 17.3817 3.38417 17.2148C3.05004 15.546 2.92583 12.6695 3.32504 10.4902L2.78238 11.0328C2.65129 11.1639 2.45421 11.2033 2.28279 11.1323C2.11137 11.0608 2 10.8935 2 10.7083C2 7.72733 4.90308 2 8.875 2C10.5456 2 12.6659 2.39279 13.324 3.05096C13.5033 3.23017 13.5033 3.51983 13.324 3.69904C13.1448 3.87825 12.8552 3.87825 12.676 3.69904C12.3574 3.38004 10.718 2.91667 8.875 2.91667C5.98017 2.91667 3.67567 6.72083 3.07204 9.44654L3.96763 8.55096C4.12621 8.39146 4.37783 8.37129 4.55979 8.50329C4.74175 8.63483 4.80179 8.87867 4.70188 9.07987C3.97954 10.5255 3.83287 13.7278 4.13538 16.1112C4.23071 15.9764 4.29258 15.8513 4.29258 15.75C4.29258 15.497 4.49746 15.2917 4.75092 15.2917C5.00529 15.2917 5.20925 15.497 5.20925 15.75C5.20925 16.4778 7.35838 19.98 9.08079 20.8398C9.30629 20.9525 9.39842 21.2285 9.28475 21.4549C9.20454 21.6157 9.04275 21.7083 8.87454 21.7083Z" fill="black"/>
<path d="M17.1254 21.7083C16.9572 21.7083 16.7954 21.6157 16.7147 21.4549C16.6011 21.2285 16.6932 20.9525 16.9196 20.8398C18.6425 19.98 20.7916 16.4778 20.7916 15.75C20.7916 15.497 20.9965 15.2917 21.25 15.2917C21.5034 15.2917 21.7083 15.497 21.7083 15.75C21.7083 15.8513 21.7702 15.9764 21.866 16.1112C22.168 13.7278 22.0218 10.5255 21.2985 9.07987C21.1977 8.87867 21.2582 8.63437 21.4415 8.50329C21.623 8.37129 21.8742 8.39146 22.0337 8.55096L22.9293 9.44654C22.3243 6.72083 20.0198 2.91667 17.125 2.91667C15.282 2.91667 13.6425 3.38004 13.324 3.69904C13.1448 3.87825 12.8551 3.87825 12.6759 3.69904C12.4967 3.51983 12.4967 3.23017 12.6759 3.05096C13.3341 2.39279 15.4543 2 17.125 2C21.0969 2 24 7.72733 24 10.7083C24 10.8935 23.8886 11.0608 23.7172 11.1318C23.5462 11.2029 23.3487 11.1635 23.2176 11.0324L22.6749 10.4897C23.0741 12.6695 22.9499 15.546 22.6158 17.2148C22.5828 17.3798 22.4609 17.5141 22.2995 17.5636C22.1373 17.6127 21.9627 17.5687 21.8426 17.449C21.6707 17.2772 21.497 17.1035 21.3416 16.9242C20.579 18.5325 18.7731 20.9388 17.3298 21.6597C17.2647 21.6927 17.1937 21.7083 17.1254 21.7083Z" fill="black"/>
<path d="M18.5002 24H7.50016C7.315 24 7.14725 23.8882 7.07666 23.7172C7.00562 23.5458 7.04504 23.3487 7.17612 23.2176C8.2752 22.1186 9.09883 19.98 9.29087 19.1958C7.69404 18.1764 6.7957 16.1694 6.61787 13.2214C5.225 11.7437 5.2085 9.87236 5.2085 9.79169C5.2085 9.53869 5.41337 9.33336 5.66683 9.33336C5.74612 9.33336 6.26358 9.34161 6.76454 9.54328C7.50108 7.29973 9.31516 5.52873 11.528 4.94665C11.654 4.91273 11.7902 4.93611 11.9006 5.00944C12.0092 5.08278 12.0821 5.19919 12.1005 5.32982C12.1591 5.78311 12.5473 6.12503 13.0011 6.12503C13.4548 6.12503 13.843 5.78311 13.9035 5.32982C13.921 5.19919 13.9934 5.08278 14.1038 5.00944C14.2115 4.93611 14.3477 4.91319 14.476 4.94665C16.6875 5.52873 18.5015 7.29973 19.2395 9.54328C19.7395 9.34161 20.257 9.33336 20.3362 9.33336C20.5897 9.33336 20.7946 9.53869 20.7946 9.79169C20.7946 9.87236 20.7785 11.7433 19.3857 13.2205C19.2115 16.1781 18.3132 18.1856 16.7127 19.1976C16.9042 19.9809 17.7279 22.1186 18.827 23.2176C18.958 23.3487 18.9975 23.5458 18.9264 23.7172C18.8531 23.8882 18.6853 24 18.5002 24ZM8.47779 23.0834H17.5225C16.4432 21.5709 15.7502 19.4786 15.7502 18.9584C15.7502 18.7888 15.8437 18.6334 15.9926 18.5537C17.5051 17.7488 18.3407 15.8733 18.4777 12.978C18.4855 12.8176 18.5744 12.6801 18.7041 12.604C19.448 11.8207 19.7198 10.888 19.8188 10.3183C19.6176 10.3669 19.4095 10.4467 19.2825 10.5741C19.1647 10.6919 18.9933 10.7368 18.8334 10.6905C18.6725 10.6447 18.5506 10.5163 18.513 10.3541C18.0432 8.34015 16.5238 6.62782 14.6648 5.96415C14.3742 6.60353 13.7303 7.04123 13.0011 7.04123C12.2719 7.04123 11.6279 6.60353 11.3373 5.96415C9.4765 6.62736 7.95941 8.34015 7.48916 10.3541C7.45158 10.5163 7.32829 10.6447 7.16879 10.6905C7.00837 10.7368 6.83741 10.6919 6.71962 10.5741C6.59358 10.4476 6.38641 10.3678 6.18566 10.3188C6.28833 10.8972 6.56516 11.8464 7.32187 12.6297C7.43645 12.7085 7.51758 12.8341 7.524 12.978C7.6647 15.8642 8.50162 17.741 10.0109 18.555C10.158 18.6348 10.2506 18.7897 10.2506 18.9584C10.2502 19.4786 9.55716 21.5709 8.47779 23.0834Z" fill="black"/>
<path d="M14.3748 11.625C14.1933 11.625 14.0215 11.5159 13.9486 11.3367C13.8551 11.1016 13.9697 10.8348 14.2048 10.7409L16.4965 9.8242C16.7293 9.73162 16.9988 9.84437 17.0928 10.0795C17.1863 10.3146 17.0717 10.5814 16.8366 10.6753L14.5449 11.592C14.4894 11.6145 14.4317 11.625 14.3748 11.625Z" fill="black"/>
<path d="M14.3748 11.625C14.1933 11.625 14.0215 11.5159 13.9486 11.3367C13.8551 11.1016 13.9697 10.8348 14.2048 10.7409L16.4965 9.8242C16.7293 9.73162 16.9988 9.84437 17.0928 10.0795C17.1863 10.3146 17.0717 10.5814 16.8366 10.6753L14.5449 11.592C14.4894 11.6145 14.4317 11.625 14.3748 11.625Z" fill="black"/>
<path d="M15.2915 12.5416C14.5334 12.5416 13.9165 11.9247 13.9165 11.1666C13.9165 10.9792 14.0306 10.811 14.2048 10.7413L15.7833 10.1097C15.9565 10.0405 16.1559 10.0831 16.2852 10.2188C16.5308 10.4769 16.6665 10.8133 16.6665 11.1666C16.6665 11.9247 16.0496 12.5416 15.2915 12.5416ZM14.9239 11.4407C15.0078 11.5526 15.1416 11.625 15.2915 11.625C15.5445 11.625 15.7498 11.4192 15.7498 11.1666C15.7498 11.1479 15.7485 11.1295 15.7462 11.1116L14.9239 11.4407Z" fill="black"/>
<path d="M11.625 11.625C11.5682 11.625 11.5104 11.6145 11.455 11.592L9.1633 10.6753C8.92818 10.5809 8.81359 10.3146 8.90709 10.0795C9.00105 9.84437 9.27055 9.73162 9.50338 9.8242L11.7951 10.7409C12.0302 10.8353 12.1448 11.1016 12.0513 11.3367C11.9784 11.5159 11.8065 11.625 11.625 11.625Z" fill="black"/>
<path d="M11.625 11.625C11.5682 11.625 11.5104 11.6145 11.455 11.592L9.1633 10.6753C8.92818 10.5809 8.81359 10.3146 8.90709 10.0795C9.00105 9.84437 9.27055 9.73162 9.50338 9.8242L11.7951 10.7409C12.0302 10.8353 12.1448 11.1016 12.0513 11.3367C11.9784 11.5159 11.8065 11.625 11.625 11.625Z" fill="black"/>
<path d="M10.7085 12.5417C9.95041 12.5417 9.3335 11.9248 9.3335 11.1667C9.3335 10.8133 9.46916 10.4769 9.71483 10.2188C9.84362 10.0836 10.0439 10.0405 10.2167 10.1098L11.7952 10.7413C11.9694 10.811 12.0835 10.9797 12.0835 11.1667C12.0835 11.9248 11.4666 12.5417 10.7085 12.5417ZM10.2538 11.1117C10.2515 11.13 10.2502 11.1483 10.2502 11.1667C10.2502 11.4192 10.4555 11.625 10.7085 11.625C10.8584 11.625 10.9922 11.5526 11.0761 11.4408L10.2538 11.1117Z" fill="black"/>
<path d="M14.8332 17.5834H11.1665C10.9685 17.5834 10.7939 17.4573 10.732 17.2699L9.81534 14.5199C9.76814 14.3796 9.79197 14.2261 9.87859 14.1069C9.96522 13.9878 10.1032 13.9163 10.2512 13.9163H15.7512C15.8983 13.9163 16.0368 13.9864 16.1238 14.1069C16.21 14.2266 16.2329 14.3801 16.1871 14.5199L15.2704 17.2699C15.2058 17.4573 15.0312 17.5834 14.8332 17.5834ZM11.497 16.6667H14.5032L15.1146 14.8334H10.8865L11.497 16.6667Z" fill="black"/>
<path d="M11.3956 19.7554C10.589 19.7554 9.78229 19.5973 9.46741 19.2824C9.28821 19.1032 9.28821 18.8135 9.46741 18.6343C9.64662 18.4551 9.93537 18.4551 10.1141 18.633C10.4391 18.9116 12.3545 18.9116 12.6776 18.6325C12.8641 18.4712 13.1556 18.4762 13.3243 18.6563C13.492 18.8369 13.4985 19.1078 13.3238 19.2824C13.009 19.5978 12.2023 19.7554 11.3956 19.7554Z" fill="black"/>
<path d="M14.6041 19.7554C13.7975 19.7554 12.9908 19.5972 12.6759 19.2824C12.4967 19.1032 12.4967 18.8135 12.6759 18.6343C12.8551 18.4551 13.1448 18.4551 13.324 18.6343C13.6457 18.9116 15.5625 18.9116 15.8861 18.6325C16.0726 18.4711 16.3641 18.4762 16.5328 18.6563C16.7005 18.8369 16.707 19.1077 16.5323 19.2824C16.2175 19.5977 15.4108 19.7554 14.6041 19.7554Z" fill="black"/>
<path d="M11.6251 9.33333C11.5078 9.33333 11.3904 9.28841 11.3011 9.19903L9.00941 6.90737C8.8302 6.72816 8.8302 6.43849 9.00941 6.25928C9.18861 6.08008 9.47828 6.08008 9.65749 6.25928L11.9492 8.55095C12.1284 8.73016 12.1284 9.01983 11.9492 9.19903C11.8598 9.28841 11.7424 9.33333 11.6251 9.33333Z" fill="black"/>
<path d="M10.7084 9.33333C10.5911 9.33333 10.4738 9.28841 10.3844 9.19903C10.2052 9.01983 10.2052 8.73016 10.3844 8.55095L11.3011 7.63428C11.4803 7.45508 11.7699 7.45508 11.9492 7.63428C12.1284 7.81349 12.1284 8.10316 11.9492 8.28237L11.0325 9.19903C10.9431 9.28841 10.8258 9.33333 10.7084 9.33333Z" fill="black"/>
<path d="M9.79146 8.4167C9.67412 8.4167 9.55679 8.37178 9.46741 8.28241C9.28821 8.1032 9.28821 7.81353 9.46741 7.63432L10.3841 6.71766C10.5633 6.53845 10.853 6.53845 11.0322 6.71766C11.2114 6.89687 11.2114 7.18653 11.0322 7.36574L10.1155 8.28241C10.0261 8.37178 9.90879 8.4167 9.79146 8.4167Z" fill="black"/>
</g>
</g>
<defs>
<clipPath id="clip0_232_21907">
<rect width="26" height="26" fill="white"/>
</clipPath>
<clipPath id="clip1_232_21907">
<rect width="20" height="20" fill="white" transform="translate(3 3)"/>
</clipPath>
<clipPath id="clip2_232_21907">
<rect width="22" height="22" fill="white" transform="translate(2 2)"/>
</clipPath>
</defs>
</svg>
